<svg width="3091" height="2091" xmlns="http://www.w3.org/2000/svg" xmlns:xlink="http://www.w3.org/1999/xlink" xml:space="preserve" overflow="hidden"><defs><clipPath id="clip0"><rect x="383" y="87" width="3091" height="2091"/></clipPath></defs><g clip-path="url(#clip0)" transform="translate(-383 -87)"><path d="M437.5 894.5 692.5 894.5 692.5 1040.22 644.219 1088.5 437.5 1088.5Z" fill="#FFFFFF" fill-rule="evenodd"/><path d="M644.219 1088.5 653.876 1049.88 692.5 1040.22Z" fill="#CDCDCD" fill-rule="evenodd"/><path d="M644.219 1088.5 653.876 1049.88 692.5 1040.22 644.219 1088.5 437.5 1088.5 437.5 894.5 692.5 894.5 692.5 1040.22" stroke="#000000" stroke-width="4.58333" stroke-miterlimit="8" fill="none" fill-rule="evenodd"/><path d="M3074.5 1003.5 3329.5 1003.5 3329.5 1277.04 3266.04 1340.5 3074.5 1340.5Z" fill="#FFFFFF" fill-rule="evenodd"/><path d="M3266.04 1340.5 3278.73 1289.73 3329.5 1277.04Z" fill="#CDCDCD" fill-rule="evenodd"/><path d="M3266.04 1340.5 3278.73 1289.73 3329.5 1277.04 3266.04 1340.5 3074.5 1340.5 3074.5 1003.5 3329.5 1003.5 3329.5 1277.04" stroke="#000000" stroke-width="4.58333" stroke-miterlimit="8" fill="none" fill-rule="evenodd"/><path d="M439.5 1186.5 695.5 1186.5 695.5 1459.79 631.789 1523.5 439.5 1523.5Z" fill="#FFFFFF" fill-rule="evenodd"/><path d="M631.789 1523.5 644.532 1472.53 695.5 1459.79Z" fill="#CDCDCD" fill-rule="evenodd"/><path d="M631.789 1523.5 644.532 1472.53 695.5 1459.79 631.789 1523.5 439.5 1523.5 439.5 1186.5 695.5 1186.5 695.5 1459.79" stroke="#000000" stroke-width="4.58333" stroke-miterlimit="8" fill="none" fill-rule="evenodd"/><rect x="964.5" y="736.5" width="1715" height="862" stroke="#000000" stroke-width="6.875" stroke-miterlimit="8" fill="#FFFFFF"/><text font-family="Calibri,Calibri_MSFontService,sans-serif" font-weight="400" font-size="83" transform="matrix(1 0 0 1 1585.27 830)">kg_text_to_ttl</text><path d="M471.5 1215.5 727.5 1215.5 727.5 1488.79 663.789 1552.5 471.5 1552.5Z" fill="#FFFFFF" fill-rule="evenodd"/><path d="M663.789 1552.5 676.531 1501.53 727.5 1488.79Z" fill="#CDCDCD" fill-rule="evenodd"/><path d="M663.789 1552.5 676.531 1501.53 727.5 1488.79 663.789 1552.5 471.5 1552.5 471.5 1215.5 727.5 1215.5 727.5 1488.79" stroke="#000000" stroke-width="4.58333" stroke-miterlimit="8" fill="none" fill-rule="evenodd"/><path d="M1607.5 1094.5 1863.5 1094.5 1863.5 1367.79 1799.79 1431.5 1607.5 1431.5Z" fill="#FFFFFF" fill-rule="evenodd"/><path d="M1799.79 1431.5 1812.53 1380.53 1863.5 1367.79Z" fill="#CDCDCD" fill-rule="evenodd"/><path d="M1799.79 1431.5 1812.53 1380.53 1863.5 1367.79 1799.79 1431.5 1607.5 1431.5 1607.5 1094.5 1863.5 1094.5 1863.5 1367.79" stroke="#000000" stroke-width="4.58333" stroke-miterlimit="8" stroke-dasharray="18.3333 13.75" fill="none" fill-rule="evenodd"/><path d="M2252.5 211.5 2508.5 211.5 2508.5 484.79 2444.79 548.5 2252.5 548.5Z" fill="#FFFFFF" fill-rule="evenodd"/><path d="M2444.79 548.5 2457.53 497.532 2508.5 484.79Z" fill="#CDCDCD" fill-rule="evenodd"/><path d="M2444.79 548.5 2457.53 497.532 2508.5 484.79 2444.79 548.5 2252.5 548.5 2252.5 211.5 2508.5 211.5 2508.5 484.79" stroke="#000000" stroke-width="4.58333" stroke-miterlimit="8" fill="none" fill-rule="evenodd"/><path d="M3106.5 1026.5 3361.5 1026.5 3361.5 1300.04 3298.04 1363.5 3106.5 1363.5Z" fill="#FFFFFF" fill-rule="evenodd"/><path d="M3298.04 1363.5 3310.73 1312.73 3361.5 1300.04Z" fill="#CDCDCD" fill-rule="evenodd"/><path d="M3298.04 1363.5 3310.73 1312.73 3361.5 1300.04 3298.04 1363.5 3106.5 1363.5 3106.5 1026.5 3361.5 1026.5 3361.5 1300.04" stroke="#000000" stroke-width="4.58333" stroke-miterlimit="8" fill="none" fill-rule="evenodd"/><text font-family="Calibri,Calibri_MSFontService,sans-serif" font-weight="400" font-size="73" transform="matrix(1 0 0 1 427.21 800)">Documents<tspan font-size="73" x="1805.79" y="-621">Workflow</tspan><tspan font-size="55" x="1852.06" y="-297">*.</tspan><tspan font-size="55" x="1891.25" y="-297">yaml</tspan><tspan font-size="55" x="74.277" y="520">*.docx</tspan><tspan font-size="55" x="74.277" y="586">*.doc</tspan><tspan font-size="55" x="74.277" y="652">…</tspan><tspan font-size="55" x="2711.53" y="530">*.</tspan><tspan font-size="55" x="2751.59" y="530">ttl</tspan><tspan font-size="73" x="2699.53" y="168">Triples</tspan></text><rect x="975.5" y="1838.5" width="563" height="337" stroke="#000000" stroke-width="4.58333" stroke-miterlimit="8" fill="#FFFFFF"/><text font-family="Calibri,Calibri_MSFontService,sans-serif" font-weight="400" font-size="83" transform="matrix(1 0 0 1 1072.34 2034)">Tika Server<tspan font-size="55" x="589.186" y="-723">*.</tspan><tspan font-size="55" x="630.436" y="-723">xhtml</tspan><tspan font-size="55" x="589.186" y="-657">…</tspan></text><path d="M2200.5 1263C2200.5 1183.75 2264.75 1119.5 2344 1119.5 2423.25 1119.5 2487.5 1183.75 2487.5 1263 2487.5 1342.25 2423.25 1406.5 2344 1406.5 2264.75 1406.5 2200.5 1342.25 2200.5 1263Z" stroke="#000000" stroke-width="4.58333" stroke-miterlimit="8" fill="#FFFFFF" fill-rule="evenodd"/><text font-family="Calibri,Calibri_MSFontService,sans-serif" font-weight="400" font-size="55" transform="matrix(1 0 0 1 2236.29 1244)">Workflow<tspan font-size="55" x="0" y="66">Execution</tspan></text><path d="M1167.5 1277.5C1167.5 1197.97 1231.97 1133.5 1311.5 1133.5 1391.03 1133.5 1455.5 1197.97 1455.5 1277.5 1455.5 1357.03 1391.03 1421.5 1311.5 1421.5 1231.97 1421.5 1167.5 1357.03 1167.5 1277.5Z" stroke="#000000" stroke-width="4.58333" stroke-miterlimit="8" fill="#FFFFFF" fill-rule="evenodd"/><path d="M22.9168-2.29165 584.208-2.29131 584.208 2.29203 22.9168 2.29168ZM27.5 22.9167 0 0 27.5-22.9166Z" transform="matrix(-1 0 0 1 3074.71 1263.5)"/><path d="M22.9232-2.22638 59.5897-2.12193 59.5767 2.46138 22.9102 2.35694ZM73.3397-2.08276 110.006-1.97832 109.993 2.605 73.3266 2.50055ZM123.756-1.93915 160.423-1.8347 160.41 2.74861 123.743 2.64417ZM174.173-1.79553 210.839-1.69109 210.826 2.89223 174.16 2.78778ZM224.589-1.65192 261.256-1.54747 261.243 3.03584 224.576 2.93139ZM275.006-1.50831 311.672-1.40386 311.659 3.17946 274.992 3.07501ZM325.422-1.36469 362.089-1.26025 362.075 3.32307 325.409 3.21862ZM375.838-1.22108 412.505-1.11663 412.492 3.46668 375.825 3.36224ZM426.255-1.07746 443.178-1.02926 443.165 3.55406 426.242 3.50585ZM27.4346 22.9949 0 0 27.5652-22.8382Z" transform="matrix(-6.12323e-17 -1 -1 6.12323e-17 1213.76 1828.67)"/><path d="M1409.99 1409.42 1409.88 1446.09 1405.3 1446.08 1405.41 1409.41ZM1409.85 1459.84 1409.74 1496.51 1405.16 1496.49 1405.26 1459.83ZM1409.7 1510.26 1409.6 1546.92 1405.01 1546.91 1405.12 1510.24ZM1409.56 1560.67 1409.45 1597.34 1404.87 1597.33 1404.97 1560.66ZM1409.41 1611.09 1409.31 1647.76 1404.73 1647.74 1404.83 1611.08ZM1409.27 1661.51 1409.17 1698.17 1404.58 1698.16 1404.69 1661.49ZM1409.13 1711.92 1409.02 1748.59 1404.44 1748.58 1404.54 1711.91ZM1408.98 1762.34 1408.88 1799 1404.3 1798.99 1404.4 1762.33ZM1408.84 1812.75 1408.79 1829.68 1404.21 1829.67 1404.26 1812.74ZM1384.77 1413.93 1407.76 1386.5 1430.6 1414.06Z"/><path d="M22.9356-2.09359 27.5188-2.054 27.4792 2.52916 22.896 2.48957ZM32.102-2.0144 36.6851-1.9748 36.6455 2.60836 32.0624 2.56876ZM41.2683-1.93521 45.8514-1.89561 45.8119 2.68755 41.2287 2.64796ZM50.4346-1.85601 55.0178-1.81641 54.9782 2.76675 50.395 2.72715ZM59.6009-1.77682 64.1841-1.73722 64.1445 2.84594 59.5613 2.80635ZM68.7673-1.69762 73.3504-1.65803 73.3108 2.92514 68.7277 2.88554ZM77.9336-1.61843 82.5168-1.57883 82.4772 3.00433 77.894 2.96473ZM87.0999-1.53923 91.6831-1.49964 91.6435 3.08353 87.0603 3.04393ZM96.2663-1.46004 100.849-1.42044 100.81 3.16272 96.2266 3.12312ZM105.433-1.38084 110.016-1.34125 109.976 3.24191 105.393 3.20232ZM114.599-1.30165 119.182-1.26205 119.142 3.32111 114.559 3.28151ZM123.765-1.22246 128.348-1.18286 128.309 3.4003 123.726 3.36071ZM132.932-1.14326 137.515-1.10366 137.475 3.4795 132.892 3.4399ZM142.098-1.06407 146.681-1.02447 146.641 3.55869 142.058 3.5191ZM151.264-0.984873 155.847-0.945275 155.808 3.63789 151.225 3.59829ZM27.301 23.1534 0 0 27.697-22.6782Z" transform="matrix(-1 0 0 1 1605.11 1278.5)"/><path d="M22.9166-2.29164 27.5-2.29164 27.5 2.2917 22.9166 2.29169ZM32.0833-2.29163 36.6666-2.29163 36.6666 2.29171 32.0833 2.2917ZM41.25-2.29162 45.8333-2.29162 45.8333 2.29172 41.25 2.29171ZM50.4166-2.29161 55-2.29161 55 2.29173 50.4166 2.29172ZM59.5833-2.2916 64.1666-2.2916 64.1666 2.29174 59.5833 2.29173ZM68.75-2.29159 73.3333-2.29159 73.3333 2.29175 68.75 2.29174ZM77.9166-2.29158 82.5-2.29158 82.5 2.29175 77.9166 2.29175ZM87.0833-2.29157 91.6666-2.29157 91.6666 2.29176 87.0833 2.29176ZM96.25-2.29156 100.833-2.29156 100.833 2.29177 96.25 2.29177ZM105.417-2.29155 110-2.29155 110 2.29178 105.417 2.29178ZM114.583-2.29154 119.167-2.29154 119.167 2.29179 114.583 2.29179ZM123.75-2.29153 128.333-2.29153 128.333 2.2918 123.75 2.2918ZM132.917-2.29152 137.5-2.29152 137.5 2.29181 132.917 2.29181ZM142.083-2.29151 146.667-2.29151 146.667 2.29182 142.083 2.29182ZM151.25-2.2915 155.833-2.2915 155.833 2.29183 151.25 2.29183ZM160.417-2.2915 165-2.29149 165 2.29184 160.417 2.29184ZM169.583-2.29149 174.167-2.29148 174.167 2.29185 169.583 2.29185ZM178.75-2.29148 183.333-2.29147 183.333 2.29186 178.75 2.29186ZM187.917-2.29147 192.5-2.29146 192.5 2.29187 187.917 2.29187ZM197.083-2.29146 201.667-2.29145 201.667 2.29188 197.083 2.29188ZM206.25-2.29145 210.833-2.29144 210.833 2.29189 206.25 2.29189ZM215.417-2.29144 220-2.29143 220 2.2919 215.417 2.2919ZM224.583-2.29143 229.167-2.29142 229.167 2.29191 224.583 2.29191ZM233.75-2.29142 238.333-2.29141 238.333 2.29192 233.75 2.29192ZM242.917-2.29141 247.5-2.2914 247.5 2.29193 242.917 2.29193ZM252.083-2.2914 256.667-2.29139 256.667 2.29194 252.083 2.29194ZM261.25-2.29139 265.833-2.29138 265.833 2.29195 261.25 2.29195ZM270.417-2.29138 275-2.29137 275 2.29196 270.417 2.29196ZM279.583-2.29137 284.167-2.29136 284.167 2.29197 279.583 2.29197ZM288.75-2.29136 293.333-2.29135 293.333 2.29198 288.75 2.29198ZM297.917-2.29135 302.5-2.29134 302.5 2.29199 297.917 2.29199ZM307.083-2.29134 311.667-2.29133 311.667 2.292 307.083 2.292ZM316.25-2.29133 320.833-2.29132 320.833 2.29201 316.25 2.292ZM325.417-2.29132 330-2.29131 330 2.29202 325.417 2.29201ZM334.583-2.29131 337.483-2.29131 337.483 2.29203 334.583 2.29202ZM27.5 22.9167 0 0 27.5-22.9166Z" transform="matrix(-1 0 0 1 2200.98 1281.5)"/><path d="M2.29168 22.9168 2.29203 564.434-2.29131 564.434-2.29165 22.9168ZM-22.9166 27.5 0 0 22.9167 27.5Z" transform="matrix(1 0 0 -1 2353.5 1119.93)"/><rect x="2116.5" y="1838.5" width="563" height="337" stroke="#000000" stroke-width="4.58333" stroke-miterlimit="8" fill="#FFFFFF"/><text font-family="Calibri,Calibri_MSFontService,sans-serif" font-weight="400" font-size="83" transform="matrix(1 0 0 1 2268.8 1984)">Stardog<tspan font-size="83" x="21.3125" y="99">Server</tspan><tspan font-size="55" x="-996.02" y="-757">Tika</tspan><tspan font-size="55" x="-1067.2" y="-691">Invocation</tspan><tspan font-size="50" x="-1468.16" y="-725">Read</tspan><tspan font-size="50" x="-1292.02" y="-299">Document</tspan><tspan font-size="50" x="-1257.07" y="-238">contents</tspan><tspan font-size="50" x="-840.782" y="-289">Text /</tspan><tspan font-size="50" x="-840.782" y="-228">HTML</tspan><tspan font-size="50" x="111.01" y="-1328">Read</tspan><tspan font-size="50" x="540.098" y="-744">Write</tspan></text><path d="M22.9232-2.22638 59.5897-2.12193 59.5767 2.46138 22.9102 2.35694ZM73.3397-2.08276 110.006-1.97832 109.993 2.605 73.3266 2.50055ZM123.756-1.93915 160.423-1.8347 160.41 2.74861 123.743 2.64417ZM174.173-1.79553 210.839-1.69109 210.826 2.89223 174.16 2.78778ZM224.589-1.65192 261.256-1.54747 261.243 3.03584 224.576 2.93139ZM275.006-1.50831 311.672-1.40386 311.659 3.17946 274.992 3.07501ZM325.422-1.36469 362.089-1.26025 362.075 3.32307 325.409 3.21862ZM375.838-1.22108 412.505-1.11663 412.492 3.46668 375.825 3.36224ZM426.255-1.07746 443.178-1.02926 443.165 3.55406 426.242 3.50585ZM27.4346 22.9949 0 0 27.5652-22.8382Z" transform="matrix(-6.12323e-17 -1 -1 6.12323e-17 2237.76 1834.67)"/><path d="M2433.99 1415.42 2433.88 1452.09 2429.3 1452.08 2429.41 1415.41ZM2433.85 1465.84 2433.74 1502.51 2429.16 1502.49 2429.26 1465.83ZM2433.7 1516.26 2433.6 1552.92 2429.01 1552.91 2429.12 1516.24ZM2433.56 1566.67 2433.45 1603.34 2428.87 1603.33 2428.97 1566.66ZM2433.41 1617.09 2433.31 1653.76 2428.73 1653.74 2428.83 1617.08ZM2433.27 1667.51 2433.17 1704.17 2428.58 1704.16 2428.69 1667.49ZM2433.13 1717.92 2433.02 1754.59 2428.44 1754.58 2428.54 1717.91ZM2432.98 1768.34 2432.88 1805 2428.3 1804.99 2428.4 1768.33ZM2432.84 1818.75 2432.79 1835.68 2428.21 1835.67 2428.26 1818.74ZM2408.77 1419.93 2431.76 1392.5 2454.6 1420.07Z"/><text font-family="Calibri,Calibri_MSFontService,sans-serif" font-weight="400" font-size="50" transform="matrix(1 0 0 1 2092.09 1652)">Query<tspan font-size="50" x="363.874" y="1">Query</tspan><tspan font-size="50" x="363.874" y="62">Result</tspan></text><path d="M2701.42 1985.21 2898.91 1985.21 2898.91 1989.79 2701.42 1989.79ZM2706 2010.42 2678.5 1987.5 2706 1964.58Z"/><path d="M0 0 431.271 0.000360892" stroke="#000000" stroke-width="4.58333" stroke-miterlimit="8" fill="none" fill-rule="evenodd" transform="matrix(-1 0 0 1 2898.77 1333.5)"/><path d="M2898.5 1987.05 2898.5 1337.5" stroke="#000000" stroke-width="4.58333" stroke-miterlimit="8" fill="none" fill-rule="evenodd"/><text font-family="Calibri,Calibri_MSFontService,sans-serif" font-weight="400" font-size="73" transform="matrix(1 0 0 1 2937.03 1683)">Upload to Graph<tspan font-size="73" x="100.444" y="88">[optional</tspan><tspan font-size="73" x="369.967" y="88">]</tspan></text><rect x="1108.5" y="898.5" width="424" height="207" stroke="#000000" stroke-width="4.58333" stroke-miterlimit="8" fill="#FFFFFF"/><text font-family="Calibri,Calibri_MSFontService,sans-serif" font-weight="400" font-size="55" transform="matrix(1 0 0 1 1191.4 966)">PyMuPDF<tspan font-size="55" x="229.487" y="0">+ </tspan><tspan font-size="55" x="-51.6542" y="66">TableRecognizer</tspan></text><path d="M1586.49 1092.12 1583.03 1089.12 1586.03 1085.65 1589.49 1088.65ZM1579.57 1086.11 1576.1 1083.11 1579.1 1079.65 1582.57 1082.65ZM1572.64 1080.11 1569.17 1077.11 1572.17 1073.65 1575.64 1076.65ZM1565.71 1074.11 1562.25 1071.11 1565.25 1067.64 1568.71 1070.65ZM1558.78 1068.11 1555.32 1065.1 1558.32 1061.64 1561.78 1064.64ZM1551.85 1062.1 1548.39 1059.1 1551.39 1055.64 1554.86 1058.64ZM1544.93 1056.1 1541.46 1053.1 1544.46 1049.64 1547.93 1052.64ZM1538 1050.1 1537 1049.23 1540 1045.77 1541 1046.63ZM1599.54 1070.06 1605.31 1105.39 1569.52 1104.7Z"/><path d="M22.9232-2.22638 443.178-1.02926 443.165 3.55406 22.9102 2.35694ZM27.4346 22.9949 0 0 27.5652-22.8382Z" transform="matrix(-1 0 0 1 1169.67 1284.5)"/><path d="M22.9168-2.29165 405.675-2.29131 405.675 2.29203 22.9168 2.29169ZM27.5 22.9167 0 0 27.5-22.9166Z" transform="matrix(-1 0 0 1 1101.17 999.5)"/><path d="M471.5 925.5 727.5 925.5 727.5 1071.22 679.219 1119.5 471.5 1119.5Z" fill="#FFFFFF" fill-rule="evenodd"/><path d="M679.219 1119.5 688.875 1080.88 727.5 1071.22Z" fill="#CDCDCD" fill-rule="evenodd"/><path d="M679.219 1119.5 688.875 1080.88 727.5 1071.22 679.219 1119.5 471.5 1119.5 471.5 925.5 727.5 925.5 727.5 1071.22" stroke="#000000" stroke-width="4.58333" stroke-miterlimit="8" fill="none" fill-rule="evenodd"/><text font-family="Calibri,Calibri_MSFontService,sans-serif" font-weight="400" font-size="55" transform="matrix(1 0 0 1 528.583 1050)">*.pdf</text></g></svg>